<?xml version="1.0" encoding="utf-8"?>
<!-- Generator: Adobe Illustrator 28.0.0, SVG Export Plug-In . SVG Version: 6.00 Build 0)  -->
<svg version="1.1" id="Слой_1" xmlns="http://www.w3.org/2000/svg" xmlns:xlink="http://www.w3.org/1999/xlink" x="0px" y="0px"
	 viewBox="0 0 1000 325.8" style="enable-background:new 0 0 1000 325.8;" xml:space="preserve">
<style type="text/css">
	.st0{fill-rule:evenodd;clip-rule:evenodd;fill:#FFFFFF;filter:url(#Adobe_OpacityMaskFilter);}
	.st1{mask:url(#iconLogo_svg__a_00000160876812373449314350000007244229659938221983_);}
	.st2{fill:#19AA1E;}
	.st3{fill-rule:evenodd;clip-rule:evenodd;fill:#FFB919;}
	.st4{fill-rule:evenodd;clip-rule:evenodd;fill:#82D714;}
	.st5{fill-rule:evenodd;clip-rule:evenodd;fill:#FFFFFF;}
	.st6{fill-rule:evenodd;clip-rule:evenodd;fill:#0073FA;}
	.st7{fill-rule:evenodd;clip-rule:evenodd;fill:#262626;}
</style>
<defs>
	<filter id="Adobe_OpacityMaskFilter" filterUnits="userSpaceOnUse" x="0" y="0" width="323.9" height="325.8">
		<feColorMatrix  type="matrix" values="1 0 0 0 0  0 1 0 0 0  0 0 1 0 0  0 0 0 1 0"/>
	</filter>
</defs>
<mask maskUnits="userSpaceOnUse" x="0" y="0" width="323.9" height="325.8" id="iconLogo_svg__a_00000160876812373449314350000007244229659938221983_">
	<path class="st0" d="M80.5,0.2L94.4,0l144.2,0.1c2.2,0,3.5,0,4.9,0.1c7.1,0.2,14.4,0.6,21.4,1.9c7.2,1.3,13.8,3.4,20.4,6.7
		c12.9,6.5,23.4,16.9,29.9,29.8c3.3,6.5,5.4,13.1,6.7,20.3c1.3,7,1.7,14.2,1.9,21.3c0.1,3.3,0.1,6.5,0.1,9.8l0,5.8v128.7
		c0,3.9,0,7.7,0,11.6c0,3.3-0.1,6.5-0.1,9.8c-0.2,7.1-0.6,14.3-1.9,21.3c-1.3,7.1-3.4,13.8-6.7,20.3c-3.3,6.4-7.5,12.2-12.6,17.2
		c-5.1,5.1-10.9,9.3-17.4,12.5c-6.5,3.3-13.2,5.4-20.4,6.7c-7.1,1.3-14.3,1.7-21.4,1.9l-21.5,0.2l-136.5-0.1c-1.6,0-3.3,0-4.9-0.1
		c-7.1-0.2-14.4-0.6-21.4-1.9c-7.2-1.3-13.8-3.4-20.4-6.7c-12.9-6.5-23.4-16.9-30-29.8c-3.3-6.5-5.4-13.1-6.7-20.3
		c-1.3-7-1.7-14.2-1.9-21.3C0.1,242.5,0,239.2,0,236l0-5.8l0-128.7c0-3.9,0-7.7,0-11.6c0-3.3,0.1-6.5,0.1-9.8
		c0.2-7.1,0.6-14.3,1.9-21.3C3.3,51.6,5.4,45,8.8,38.5c6.6-12.8,17.1-23.3,30-29.8C45.2,5.4,51.9,3.3,59.1,2
		C66.2,0.8,73.4,0.4,80.5,0.2"/>
</mask>
<g class="st1">
	<path class="st2" d="M0,0h323.9v325.8H0V0z"/>
	<path class="st3" d="M0,0h323.9v106.9L0,56V0z"/>
	<path class="st4" d="M0,290.1l323.9-50.9v86.5H0V290.1z"/>
	<path class="st5" d="M0,49.6l113.1,17.8c14.1-9,30.8-13.9,48.9-13.9c25,0,47.5,9.4,63.9,26c2.1,2.1,4,4.3,5.8,6.5l92.2,14.5v12.9
		l-82.9-13c6.2,11.9,9.5,25.2,9.5,38.6c0,17.5-3.9,34.9-11.9,52.3l-0.2,0.5l-3.4,7.3h-8.1c-16.6,0-27.7,5-34.9,13.9
		c-5.7,7-8.9,16.4-10,26.6l0,0.3l-0.2,1.6l-0.1,0.7l-0.1,1.4c-0.4,4.6-0.7,8.4-0.8,11.6l143.2-22.5v12.9L0,296.6v-12.9l143.4-22.5
		l-0.1-2.9l0-0.8l0-0.4l0-0.6c-0.2-4.5-0.5-9-1-13.5l-0.1-1l-0.2-1.8c-1-10.3-4.3-19.8-9.9-26.9c-7.1-8.9-18.1-14-34.6-14.1H89
		l-3.4-7.3c-8.2-17.7-12.2-35.2-12.2-52.9c0-22.2,8.9-43.6,24.7-59.5c0.5-0.5,0.9-0.9,1.4-1.4L0,62.4V49.6z"/>
	<path class="st6" d="M162,66.2c45.2,0,75.9,35,75.9,72.8c0,15.2-3.3,30.9-11,47.5c-44.5,0-55.5,32.1-57.6,52.2l-0.1,1.3
		c-0.7,7.2-1.1,13-1.2,17.3l-12.1,1.9v-0.4c0-4.6-0.5-11-1.3-19.2l0-0.4c-1.9-20.1-12.7-52.8-57.6-52.8c-7.7-16.5-11-32.3-11-47.5
		C86,101.2,116.7,66.2,162,66.2"/>
</g>
<path class="st7" d="M476.5,79.8c-39.1,0-68.3,24.3-68.1,66.6h36.3c-0.5-16.9,10-33.3,31.8-33.3c16.5,0,27,11.3,27,25.6
	c0,14.9-11.5,23.1-30,32.3c-24.3,12-38.8,17.7-65.1,26.6v48.7h135.2V213h-86.1c12.5-5.4,24.8-11.2,35.8-16.6
	c29.3-14.3,46.6-30.5,46.6-59.4C539.9,102.1,514.3,79.8,476.5,79.8 M598.7,115.7h70.1V82.4H563.7v163.9h35L598.7,115.7z M723.9,82.4
	h-35v163.9h34.8L789,141.6v104.7h35V82.4h-35l-65.1,104.7L723.9,82.4z M1000,184.8h-36.3c-5.5,18.2-22.3,30.7-42.1,30.7
	c-28.8,0-47.6-25.4-47.6-51.2s18.3-51.2,48.6-51.2c20,0,35.5,12.6,41.1,30.7h36.3c-5.3-36.6-33.5-64-78.4-64
	c-49.6,0-82.6,35.6-82.6,84.5s33,84.5,82.6,84.5C966.5,248.9,994.7,222,1000,184.8"/>
</svg>
